<?xml version="1.0" encoding="UTF-8"?>
<svg version="1.1" xmlns="http://www.w3.org/2000/svg" width="100" height="100">
<path d="M0 0 C3.52512236 0.89330586 5.46452224 2.96842849 8.00390625 5.5078125 C9.30328125 4.2703125 9.30328125 4.2703125 10.62890625 3.0078125 C13.0173091 1.03062052 13.96084552 0.51556343 17.12890625 -0.0546875 C20.76930059 0.65756357 21.84556314 1.50154889 24.00390625 4.5078125 C25.25390625 8.2578125 25.25390625 8.2578125 26.00390625 11.5078125 C25.48699219 11.96671875 24.97007813 12.425625 24.4375 12.8984375 C23.77878906 13.51203125 23.12007812 14.125625 22.44140625 14.7578125 C21.78011719 15.36109375 21.11882813 15.964375 20.4375 16.5859375 C18.75789926 18.3875076 18.75789926 18.3875076 19.20703125 20.57421875 C21.03327565 25.3464035 21.03327565 25.3464035 24.90234375 28.30078125 C27.01899279 28.71445544 27.01899279 28.71445544 28.6796875 27.546875 C29.48986328 26.84691406 29.48986328 26.84691406 30.31640625 26.1328125 C33.91038556 23.32452996 36.49086323 22.78412126 41.00390625 22.5078125 C41.69431199 20.85083871 42.35696975 19.1822364 43.00390625 17.5078125 C43.27203125 16.8271875 43.54015625 16.1465625 43.81640625 15.4453125 C44.22143761 13.33827349 44.22143761 13.33827349 42.56640625 11.2578125 C42.05078125 10.6803125 41.53515625 10.1028125 41.00390625 9.5078125 C43.51257825 5.32669251 45.43701753 2.41953336 50.00390625 0.5078125 C53.71001966 -0.12152751 55.97639584 -0.11410169 59.23046875 1.85546875 C61.22072957 3.34288982 63.13228424 4.87439693 65.00390625 6.5078125 C67.54734793 5.30130812 69.49875306 4.12543088 71.75390625 2.3828125 C75.72065085 0.094306 78.53018437 -0.51297721 83.00390625 0.5078125 C85.77586664 1.8879199 86.88743864 3.07387474 89.00390625 5.5078125 C89.5078125 8.375 89.5078125 8.375 89.00390625 11.5078125 C86.31634559 14.32867617 83.38336381 16.55302908 80.3125 18.9453125 C77.67023807 21.29485712 77.67023807 21.29485712 78.04296875 24.4296875 C78.36007813 25.44546875 78.6771875 26.46125 79.00390625 27.5078125 C79.45056641 29.03148437 79.45056641 29.03148437 79.90625 30.5859375 C80.24785156 31.63265625 80.58945313 32.679375 80.94140625 33.7578125 C82.41613145 38.44099001 83.59001408 43.01233918 84.43359375 47.84375 C84.97268899 50.59863415 84.97268899 50.59863415 86.01171875 53.546875 C88.79331656 62.1639927 89.43288125 70.10640725 89.50390625 79.1328125 C89.52211426 80.27169922 89.54032227 81.41058594 89.55908203 82.58398438 C89.50057663 90.59325393 89.50057663 90.59325393 87.3046875 94.63671875 C79.68219401 100.83565658 69.71064974 100.90158198 60.31640625 101.0078125 C59.35500732 101.02626221 58.3936084 101.04471191 57.40307617 101.0637207 C50.49422398 101.00391149 45.23608332 99.40087713 39.00390625 96.5078125 C36.13917535 95.4491076 33.34407373 94.58167457 30.359375 93.93359375 C18.34557709 91.26557445 7.53363338 86.14078948 0.6953125 75.46484375 C-4.7604081 65.13294796 -5.8397775 53.15869809 -2.74609375 41.8828125 C-1.45112983 38.16521272 0.24029442 35.36672129 3.00390625 32.5078125 C1.50039971 28.1679612 -0.8027462 24.60595055 -3.43359375 20.8828125 C-3.82869141 20.31046875 -4.22378906 19.738125 -4.63085938 19.1484375 C-6.21849629 16.87661096 -7.76678554 14.73252433 -9.75 12.7890625 C-10.99609375 11.5078125 -10.99609375 11.5078125 -11.49609375 8.6328125 C-10.99609375 5.5078125 -10.99609375 5.5078125 -8.99609375 2.6328125 C-5.85689308 0.40921202 -3.85698382 -0.21956265 0 0 Z M-3.99609375 5.5078125 C-4.65609375 6.8278125 -5.31609375 8.1478125 -5.99609375 9.5078125 C-5.35994141 10.18263672 -5.35994141 10.18263672 -4.7109375 10.87109375 C0.26795315 16.33145954 4.18503836 22.19333186 8.00390625 28.5078125 C11.96390625 28.0128125 11.96390625 28.0128125 16.00390625 27.5078125 C15.32328125 26.4353125 14.64265625 25.3628125 13.94140625 24.2578125 C12.58854439 22.12603018 11.96177755 21.04705987 12.16015625 18.5078125 C13.21565476 16.00589011 14.59844662 14.61842888 16.56640625 12.7578125 C17.52740234 11.83742188 17.52740234 11.83742188 18.5078125 10.8984375 C19.00152344 10.43953125 19.49523437 9.980625 20.00390625 9.5078125 C19.34390625 8.1878125 18.68390625 6.8678125 18.00390625 5.5078125 C13.57628711 6.89934994 11.04828075 9.02852736 8.00390625 12.5078125 C8.00390625 13.1678125 8.00390625 13.8278125 8.00390625 14.5078125 C3.27043077 9.90226879 3.27043077 9.90226879 1.44140625 7.1953125 C0.96703125 6.6384375 0.49265625 6.0815625 0.00390625 5.5078125 C-1.31609375 5.5078125 -2.63609375 5.5078125 -3.99609375 5.5078125 Z M49.81640625 7.5078125 C49.21828125 8.1678125 48.62015625 8.8278125 48.00390625 9.5078125 C48.99390625 10.4978125 49.98390625 11.4878125 51.00390625 12.5078125 C49.67057292 15.84114583 48.33723958 19.17447917 47.00390625 22.5078125 C48.98390625 22.8378125 50.96390625 23.1678125 53.00390625 23.5078125 C54.32390625 21.5278125 55.64390625 19.5478125 57.00390625 17.5078125 C59.67272891 20.02836723 61.86775892 22.27927947 63.75390625 25.4453125 C66.80842949 29.60285802 70.62823817 31.87119199 75.00390625 34.5078125 C73.68213194 23.35534179 66.26037578 14.64421833 58.00390625 7.5078125 C54.35807618 5.07725912 53.13493788 4.47372644 49.81640625 7.5078125 Z M70.00390625 11.5078125 C70.66390625 13.1578125 71.32390625 14.8078125 72.00390625 16.5078125 C75.80736502 16.5078125 76.7809164 15.36994919 79.69140625 13.0078125 C80.49964844 12.358125 81.30789062 11.7084375 82.140625 11.0390625 C82.75550781 10.53375 83.37039062 10.0284375 84.00390625 9.5078125 C83.34390625 8.1878125 82.68390625 6.8678125 82.00390625 5.5078125 C76.46162786 4.50012552 73.71049624 7.91872248 70.00390625 11.5078125 Z M31.00390625 31.5078125 C29.79207307 33.56515098 29.79207307 33.56515098 29.00390625 35.5078125 C27.20953125 34.79625 27.20953125 34.79625 25.37890625 34.0703125 C20.26244784 32.19098068 16.76468489 30.96136396 11.37890625 32.6328125 C5.71608825 35.7788225 3.36796712 39.80248299 1.546875 45.859375 C-0.57173069 56.19329339 0.91288925 65.70544699 6.3359375 74.72265625 C11.20153226 81.14031415 18.5777059 84.75564026 26.00390625 87.5078125 C27.48890625 87.0128125 27.48890625 87.0128125 29.00390625 86.5078125 C28.60558594 85.89035156 28.20726563 85.27289063 27.796875 84.63671875 C22.12222953 75.56557015 18.82281365 66.98723874 18.94140625 56.1953125 C18.95042969 55.12667969 18.95945312 54.05804688 18.96875 52.95703125 C18.98035156 52.14878906 18.99195312 51.34054688 19.00390625 50.5078125 C19.99390625 50.1778125 20.98390625 49.8478125 22.00390625 49.5078125 C22.09027344 50.59578125 22.17664063 51.68375 22.265625 52.8046875 C23.61590753 67.68327241 27.54125088 79.04515713 38.31640625 89.8203125 C48.99512609 96.52555519 59.66279651 97.37358121 71.8984375 95.25390625 C76.22298723 94.21492638 80.08645008 92.59307341 84.00390625 90.5078125 C86.17551453 73.36971472 84.13528356 56.09367025 74.25390625 41.5078125 C68.54607818 34.22578044 61.17555298 29.22838499 52.00390625 27.5078125 C44.62095608 26.77224182 36.9692785 26.43489752 31.00390625 31.5078125 Z " fill="#3D8CFF" transform="translate(10.99609375,-0.5078125)"/>
</svg>
